<svg xmlns="http://www.w3.org/2000/svg" width="1280" height="960" viewBox="0 0 1280 960">
<defs>
  <linearGradient id="sky" x1="0" y1="0" x2="0" y2="1">
    <stop offset="0%" stop-color="#0b1220"/>
    <stop offset="25%" stop-color="#1a2240"/>
    <stop offset="100%" stop-color="#2a1a3a"/>
  </linearGradient>
</defs>
<rect width="1280" height="960" fill="url(#sky)"/>
<circle cx="1000" cy="150" r="60" fill="#ddeeff" opacity="0.15"/>
<circle cx="1000" cy="150" r="45" fill="#ddeeff" opacity="0.3"/>
<circle cx="1000" cy="150" r="30" fill="#ddeeff" opacity="0.5"/>
<!-- Mountain layers -->
<path d="M0 500 L160 360 L280 440 L460 300 L600 420 L760 340 L940 400 L1120 280 L1280 420 L1280 960 L0 960 Z" fill="#131a28"/>
<path d="M0 580 L140 440 L260 500 L400 380 L560 500 L720 400 L860 460 L1020 360 L1200 480 L1280 540 L1280 960 L0 960 Z" fill="#0e141f"/>
<path d="M0 680 L200 560 L340 620 L520 500 L640 600 L800 520 L940 580 L1140 480 L1280 640 L1280 960 L0 960 Z" fill="#0a1018"/>
<path d="M0 780 L180 680 L320 740 L480 640 L600 720 L760 660 L900 720 L1080 600 L1280 780 L1280 960 L0 960 Z" fill="#060c14"/>
<!-- Clouds -->
<ellipse cx="300" cy="200" rx="140" ry="30" fill="#1a2240" opacity="0.4"/>
<ellipse cx="700" cy="240" rx="180" ry="25" fill="#1a2240" opacity="0.3"/>
<ellipse cx="1100" cy="190" rx="120" ry="28" fill="#1a2240" opacity="0.4"/>
<ellipse cx="500" cy="280" rx="100" ry="18" fill="#1a2240" opacity="0.25"/>
<!-- Stars -->
<circle cx="80" cy="60" r="2" fill="#fff" opacity="0.6"/>
<circle cx="200" cy="90" r="1.5" fill="#fff" opacity="0.5"/>
<circle cx="350" cy="50" r="1.5" fill="#fff" opacity="0.4"/>
<circle cx="480" cy="110" r="2" fill="#fff" opacity="0.5"/>
<circle cx="600" cy="70" r="1.5" fill="#fff" opacity="0.3"/>
<circle cx="750" cy="100" r="2" fill="#fff" opacity="0.5"/>
<circle cx="880" cy="55" r="1.5" fill="#fff" opacity="0.4"/>
<circle cx="1050" cy="80" r="2" fill="#fff" opacity="0.5"/>
<circle cx="1180" cy="60" r="1.5" fill="#fff" opacity="0.4"/>
<circle cx="150" cy="150" r="1" fill="#fff" opacity="0.3"/>
<circle cx="450" cy="160" r="1" fill="#fff" opacity="0.3"/>
<circle cx="850" cy="140" r="1" fill="#fff" opacity="0.3"/>
<!-- Moon glow -->
<circle cx="1000" cy="150" r="80" fill="#8899cc" opacity="0.08"/>
</svg>