<svg xmlns="http://www.w3.org/2000/svg" width="320" height="320" viewBox="0 0 320 320">

<defs>
  <linearGradient id="port_bg" x1="0" y1="0" x2="1" y2="1">
    <stop offset="0%" stop-color="#1a2232"/><stop offset="100%" stop-color="#0e1420"/>
  </linearGradient>
</defs>
<rect width="320" height="320" fill="url(#port_bg)"/>

<ellipse cx="160" cy="145" rx="55" ry="60" fill="#3a1a3a"/>
<ellipse cx="160" cy="140" rx="50" ry="55" fill="#4a2a4a"/>
<path d="M100 100 C100 30 220 30 220 100 Z" fill="#2a0a2a"/>
<path d="M105 95 C105 40 160 30 160 30 C160 30 215 40 215 95 Z" fill="#3a1a3a"/>
<ellipse cx="138" cy="135" rx="4" ry="5" fill="#ff66aa"/>
<ellipse cx="182" cy="135" rx="4" ry="5" fill="#ff66aa"/>
<ellipse cx="138" cy="133" rx="2" ry="3" fill="#1a0a1a"/>
<ellipse cx="182" cy="133" rx="2" ry="3" fill="#1a0a1a"/>
<ellipse cx="160" cy="155" rx="4" ry="3" fill="#cc4488"/>
<path d="M120 120 Q160 140 200 120" fill="none" stroke="#aa66aa" stroke-width="1.5"/>
<path d="M130 170 Q160 186 190 170" fill="none" stroke="#884488" stroke-width="2"/>

</svg>