<svg xmlns="http://www.w3.org/2000/svg" width="320" height="320" viewBox="0 0 320 320">

<defs>
  <linearGradient id="port_bg" x1="0" y1="0" x2="1" y2="1">
    <stop offset="0%" stop-color="#1a2232"/><stop offset="100%" stop-color="#0e1420"/>
  </linearGradient>
</defs>
<rect width="320" height="320" fill="url(#port_bg)"/>

<polygon points="160,80 220,110 230,190 200,240 120,240 90,190 100,110" fill="#5a5a5a"/>
<polygon points="160,90 210,115 218,185 195,230 125,230 102,185 110,115" fill="#6a6a6a"/>
<ellipse cx="140" cy="150" rx="6" ry="8" fill="#ffaa44"/>
<ellipse cx="180" cy="150" rx="6" ry="8" fill="#ffaa44"/>
<ellipse cx="140" cy="148" rx="3" ry="4" fill="#1a1a1a"/>
<ellipse cx="180" cy="148" rx="3" ry="4" fill="#1a1a1a"/>
<path d="M135 170 L185 170" stroke="#8a8a8a" stroke-width="4"/>
<rect x="100" y="200" width="30" height="40" rx="4" fill="#5a5a5a"/>
<rect x="190" y="200" width="30" height="40" rx="4" fill="#5a5a5a"/>

</svg>