<svg xmlns="http://www.w3.org/2000/svg" width="320" height="320" viewBox="0 0 320 320">
  <rect width="320" height="320" fill="#1a2232"/>
  <circle cx="160" cy="120" r="56" fill="#f1c6a8"/>
  <path d="M80 110 C90 50 230 50 240 110 C235 60 180 40 160 40 C140 40 85 60 80 110 Z" fill="#3a2b4f"/>
  <path d="M90 140 C120 170 200 170 230 140 C210 190 190 220 160 230 C130 220 110 190 90 140 Z" fill="#f1c6a8"/>
  <path d="M70 260 C90 210 120 190 160 190 C200 190 230 210 250 260 Z" fill="#2e3b55"/>
  <path d="M120 140 C135 150 150 155 160 156 C170 155 185 150 200 140" fill="none" stroke="#3a2b4f" stroke-width="6" stroke-linecap="round"/>
  <circle cx="135" cy="118" r="6" fill="#2a3142"/>
  <circle cx="185" cy="118" r="6" fill="#2a3142"/>
</svg>
