<svg xmlns="http://www.w3.org/2000/svg" width="320" height="320" viewBox="0 0 320 320">

<defs>
  <linearGradient id="port_bg" x1="0" y1="0" x2="1" y2="1">
    <stop offset="0%" stop-color="#1a2232"/><stop offset="100%" stop-color="#0e1420"/>
  </linearGradient>
</defs>
<rect width="320" height="320" fill="url(#port_bg)"/>

<!-- Hair -->
<path d="M80 110 C90 40 230 40 240 110 C235 55 180 35 160 35 C140 35 85 55 80 110 Z" fill="#4a306a"/>
<path d="M75 100 C80 50 240 50 245 100 C240 60 160 40 160 40 C160 40 80 60 75 100 Z" fill="#5a408a"/>
<!-- Face -->
<ellipse cx="160" cy="125" rx="52" ry="56" fill="#f1c6a8"/>
<!-- Eyes -->
<ellipse cx="138" cy="120" rx="8" ry="9" fill="#2a3142"/>
<ellipse cx="182" cy="120" rx="8" ry="9" fill="#2a3142"/>
<ellipse cx="140" cy="118" rx="4" ry="5" fill="#1a1a2a"/>
<ellipse cx="184" cy="118" rx="4" ry="5" fill="#1a1a2a"/>
<ellipse cx="141" cy="116" rx="2" ry="2" fill="#fff"/>
<ellipse cx="183" cy="116" rx="2" ry="2" fill="#fff"/>
<!-- Eyebrows -->
<path d="M125 108 Q138 103 150 108" fill="none" stroke="#5a306a" stroke-width="2.5" stroke-linecap="round"/>
<path d="M170 108 Q182 103 195 108" fill="none" stroke="#5a306a" stroke-width="2.5" stroke-linecap="round"/>
<!-- Nose -->
<path d="M160 128 L155 138 L165 138 Z" fill="#e8b898" opacity="0.7"/>
<!-- Mouth -->
<path d="M148 148 Q160 158 172 148" fill="none" stroke="#c08070" stroke-width="2.5" stroke-linecap="round"/>
<!-- Outfit -->
<path d="M70 260 Q90 190 130 180 Q160 175 190 180 Q230 190 250 260 Z" fill="#2a1a4a"/>
<path d="M95 240 Q130 195 160 192 Q190 195 225 240" fill="#3a2a5a" opacity="0.7"/>

</svg>